<svg width="657.9px" height="122px" xmlns="http://www.w3.org/2000/svg" viewBox="-78.94687499999998 14 657.89375 122" style="background: rgba(0, 0, 0, 0)" preserveAspectRatio="xMidYMid"><defs><linearGradient id="editing-sticker-gradient" x1="0.5" y1="0.2" x2="0.5" y2="0.8"><stop offset="0" stop-color="#ffdd99"></stop><stop offset="1" stop-color="#99ddff"></stop></linearGradient><filter id="editing-sticker" x="-100%" y="-100%" width="300%" height="300%"><feMorphology operator="erode" radius="1" in="SourceAlpha" result="alpha-erode"></feMorphology><feConvolveMatrix order="3,3" divisor="1" kernelMatrix="0 1 0 1 1 1 0 1 0" in="alpha-erode" result="alpha-round"></feConvolveMatrix><feMorphology operator="dilate" radius="3.5" in="alpha-round" result="dilate-shadow"></feMorphology><feGaussianBlur in="dilate-shadow" stdDeviation="1.5" result="shadow"></feGaussianBlur><feFlood flood-color="#fff" result="flood-sticker"></feFlood><feComposite operator="in" in="flood-sticker" in2="alpha-round" result="comp-sticker"></feComposite><feMorphology operator="dilate" radius="3" in="comp-sticker" result="morph-sticker"></feMorphology><feConvolveMatrix order="3,3" divisor="1" kernelMatrix="0 1 0 1 1 1 0 1 0" in="morph-sticker" result="sticker"></feConvolveMatrix><feMerge><feMergeNode in="shadow"></feMergeNode><feMergeNode in="sticker"></feMergeNode><feMergeNode in="SourceGraphic"></feMergeNode></feMerge></filter></defs><g filter="url(#editing-sticker)"><g transform="matrix(1.2,0,0,1.3,-25.6,149.8)"><path d="M 24.7 -37.1 L 10.7 -37.1 L 18.8 -79.3 L 32.9 -79.3 L 24.7 -37.1 Z M 80.4 -35.8 L 80.4 -35.8 L 80.4 -35.8 Q 72.7 -35.8 72.7 -41.8 L 72.7 -41.8 L 72.7 -41.8 Q 72.7 -44.4 73.8 -49.5 L 73.8 -49.5 L 73.8 -49.5 Q 74.9 -54.6 75.3 -56.6 L 75.3 -56.6 L 75.3 -56.6 Q 76.2 -61.3 76.2 -62.8 L 76.2 -62.8 L 76.2 -62.8 Q 76.2 -66 73.7 -66 L 73.7 -66 L 73.7 -66 Q 72.1 -66 70.6 -63.8 L 70.6 -63.8 L 70.6 -63.8 Q 69.1 -61.6 68.4 -57.2 L 68.4 -57.2 L 64.4 -37.1 L 51.9 -35.8 L 55.4 -53.2 L 55.4 -53.2 Q 55.9 -56.1 56.5 -59.3 L 56.5 -59.3 L 56.5 -59.3 Q 57 -62.6 57 -63.1 L 57 -63.1 L 57 -63.1 Q 57 -66 54.8 -66 L 54.8 -66 L 54.8 -66 Q 53.3 -66 51.7 -63.9 L 51.7 -63.9 L 51.7 -63.9 Q 50.1 -61.7 49.2 -57.2 L 49.2 -57.2 L 45.3 -37.1 L 32.7 -35.8 L 39.4 -69.7 L 49.9 -71 L 48.8 -64.5 L 48.8 -64.5 Q 50.4 -68 53.5 -69.5 L 53.5 -69.5 L 53.5 -69.5 Q 56.6 -71 61.4 -71 L 61.4 -71 L 61.4 -71 Q 64.1 -71 65.9 -69.6 L 65.9 -69.6 L 65.9 -69.6 Q 67.7 -68.3 68.3 -66.1 L 68.3 -66.1 L 68.3 -66.1 Q 69.4 -68.4 72.2 -69.7 L 72.2 -69.7 L 72.2 -69.7 Q 75 -71 78.4 -71 L 78.4 -71 L 78.4 -71 Q 81.8 -71 83.5 -70.2 L 83.5 -70.2 L 83.5 -70.2 Q 85.2 -69.5 86.2 -68.3 L 86.2 -68.3 L 86.2 -68.3 Q 87.9 -66 87.9 -62 L 87.9 -62 L 87.9 -62 Q 87.9 -57.9 86.2 -49.5 L 86.2 -49.5 L 86.2 -49.5 Q 85.3 -45.4 85.3 -43.9 L 85.3 -43.9 L 85.3 -43.9 Q 85.3 -42.4 86.2 -41.5 L 86.2 -41.5 L 86.2 -41.5 Q 87.1 -40.6 88.3 -40.5 L 88.3 -40.5 L 88.3 -40.5 Q 87.7 -38.3 85.5 -37.1 L 85.5 -37.1 L 85.5 -37.1 Q 83.3 -35.8 80.4 -35.8 Z M 96 -39 L 96 -39 L 96 -39 Q 94.5 -40.6 93.9 -43.3 L 93.9 -43.3 L 93.9 -43.3 Q 93.2 -45.9 93.2 -50.2 L 93.2 -50.2 L 93.2 -50.2 Q 93.2 -54.5 94.7 -58.4 L 94.7 -58.4 L 94.7 -58.4 Q 96.1 -62.3 98.8 -65.1 L 98.8 -65.1 L 98.8 -65.1 Q 104.3 -71 113.4 -71 L 113.4 -71 L 113.4 -71 Q 116.7 -71 119.1 -69.9 L 119.1 -69.9 L 130 -71 L 125.3 -46 L 125.3 -46 Q 125.1 -45.2 125.1 -43.8 L 125.1 -43.8 L 125.1 -43.8 Q 125.1 -42.4 125.9 -41.5 L 125.9 -41.5 L 125.9 -41.5 Q 126.8 -40.6 128.1 -40.5 L 128.1 -40.5 L 128.1 -40.5 Q 127.4 -38.3 125.1 -37.1 L 125.1 -37.1 L 125.1 -37.1 Q 122.8 -35.8 120.1 -35.8 L 120.1 -35.8 L 120.1 -35.8 Q 117.5 -35.8 115.8 -36.8 L 115.8 -36.8 L 115.8 -36.8 Q 114 -37.8 113.5 -39.4 L 113.5 -39.4 L 113.5 -39.4 Q 112.5 -37.8 110.3 -36.8 L 110.3 -36.8 L 110.3 -36.8 Q 108.1 -35.8 105.2 -35.8 L 105.2 -35.8 L 105.2 -35.8 Q 102.3 -35.8 99.9 -36.5 L 99.9 -36.5 L 99.9 -36.5 Q 97.5 -37.3 96 -39 Z M 109.5 -65 L 109.5 -65 L 109.5 -65 Q 108.8 -63.8 108.2 -61.9 L 108.2 -61.9 L 108.2 -61.9 Q 107.5 -59.9 106.5 -54.7 L 106.5 -54.7 L 106.5 -54.7 Q 105.4 -49.5 105.4 -45.8 L 105.4 -45.8 L 105.4 -45.8 Q 105.4 -42 106 -41 L 106 -41 L 106 -41 Q 106.6 -39.9 107.6 -39.9 L 107.6 -39.9 L 107.6 -39.9 Q 109.6 -39.9 111.1 -41.8 L 111.1 -41.8 L 111.1 -41.8 Q 112.7 -43.8 113.2 -47.2 L 113.2 -47.2 L 116.6 -66 L 116.6 -66 Q 115.3 -67.1 113.7 -67.1 L 113.7 -67.1 L 113.7 -67.1 Q 112.1 -67.1 111.2 -66.6 L 111.2 -66.6 L 111.2 -66.6 Q 110.3 -66.1 109.5 -65 Z M 137.7 -63.8 L 137.7 -63.8 L 137.7 -63.8 Q 139.9 -66.9 143.2 -68.9 L 143.2 -68.9 L 143.2 -68.9 Q 146.5 -71 150.5 -71 L 150.5 -71 L 150.5 -71 Q 154.6 -71 156.5 -69.7 L 156.5 -69.7 L 169 -71 L 164.7 -46.4 L 164.7 -46.4 Q 162.4 -33.9 157.7 -28.9 L 157.7 -28.9 L 157.7 -28.9 Q 153.2 -24.3 144.3 -24.3 L 144.3 -24.3 L 144.3 -24.3 Q 137.6 -24.3 133.8 -26.4 L 133.8 -26.4 L 133.8 -26.4 Q 129.9 -28.5 129.9 -32 L 129.9 -32 L 129.9 -32 Q 129.9 -34.6 131.9 -36.1 L 131.9 -36.1 L 131.9 -36.1 Q 133.9 -37.6 137 -37.6 L 137 -37.6 L 137 -37.6 Q 139.7 -37.6 141.7 -36.4 L 141.7 -36.4 L 141.7 -36.4 Q 142.9 -35.8 143.5 -34.9 L 143.5 -34.9 L 143.5 -34.9 Q 142 -33.6 142 -31.5 L 142 -31.5 L 142 -31.5 Q 142 -28.7 144.6 -28.7 L 144.6 -28.7 L 144.6 -28.7 Q 148.9 -28.7 151.3 -38.8 L 151.3 -38.8 L 151.3 -38.8 Q 152 -41.6 152.6 -44.4 L 152.6 -44.4 L 152.6 -44.4 Q 149.7 -40.8 143.2 -40.8 L 143.2 -40.8 L 143.2 -40.8 Q 138.6 -40.8 136 -43 L 136 -43 L 136 -43 Q 133.4 -45.2 133.4 -50.3 L 133.4 -50.3 L 133.4 -50.3 Q 133.4 -53.5 134.5 -57.1 L 134.5 -57.1 L 134.5 -57.1 Q 135.6 -60.7 137.7 -63.8 Z M 146.1 -50.1 L 146.1 -50.1 L 146.1 -50.1 Q 146.1 -45.8 148.3 -45.8 L 148.3 -45.8 L 148.3 -45.8 Q 149.8 -45.8 151.3 -47.4 L 151.3 -47.4 L 151.3 -47.4 Q 152.5 -48.8 152.9 -50.8 L 152.9 -50.8 L 156.2 -67.2 L 156.2 -67.2 Q 155.9 -67.3 155.5 -67.4 L 155.5 -67.4 L 155.5 -67.4 Q 154.9 -67.6 154.1 -67.6 L 154.1 -67.6 L 154.1 -67.6 Q 150.2 -67.6 147.9 -61.2 L 147.9 -61.2 L 147.9 -61.2 Q 146.1 -56.3 146.1 -50.1 Z M 197.5 -47.9 L 197.5 -47.9 L 197.5 -47.9 Q 199.1 -46.8 199.1 -44.4 L 199.1 -44.4 L 199.1 -44.4 Q 199.1 -42 197.8 -40.4 L 197.8 -40.4 L 197.8 -40.4 Q 196.6 -38.9 194.6 -37.9 L 194.6 -37.9 L 194.6 -37.9 Q 190.5 -35.8 186.1 -35.8 L 186.1 -35.8 L 186.1 -35.8 Q 181.7 -35.8 179.1 -36.7 L 179.1 -36.7 L 179.1 -36.7 Q 176.5 -37.7 174.8 -39.5 L 174.8 -39.5 L 174.8 -39.5 Q 171.4 -42.9 171.4 -49.1 L 171.4 -49.1 L 171.4 -49.1 Q 171.4 -58.8 176.7 -64.6 L 176.7 -64.6 L 176.7 -64.6 Q 182.3 -71 192.1 -71 L 192.1 -71 L 192.1 -71 Q 198.2 -71 201.2 -68.4 L 201.2 -68.4 L 201.2 -68.4 Q 203.4 -66.5 203.4 -63.4 L 203.4 -63.4 L 203.4 -63.4 Q 203.4 -52.1 183.9 -52.1 L 183.9 -52.1 L 183.9 -52.1 Q 183.7 -50.4 183.7 -49 L 183.7 -49 L 183.7 -49 Q 183.7 -46.1 185 -45 L 185 -45 L 185 -45 Q 186.3 -43.8 188.7 -43.8 L 188.7 -43.8 L 188.7 -43.8 Q 191.2 -43.8 193.8 -45 L 193.8 -45 L 193.8 -45 Q 196.4 -46.1 197.5 -47.9 Z M 184.4 -54.8 L 184.4 -54.8 L 184.4 -54.8 Q 188.9 -54.8 191.6 -57.7 L 191.6 -57.7 L 191.6 -57.7 Q 194.2 -60.4 194.2 -64.6 L 194.2 -64.6 L 194.2 -64.6 Q 194.2 -66.1 193.6 -66.9 L 193.6 -66.9 L 193.6 -66.9 Q 193.1 -67.7 192 -67.7 L 192 -67.7 L 192 -67.7 Q 190.9 -67.7 190 -67.3 L 190 -67.3 L 190 -67.3 Q 189.1 -66.9 188.1 -65.5 L 188.1 -65.5 L 188.1 -65.5 Q 185.7 -62.3 184.4 -54.8 Z M 224.7 -59.5 L 224.7 -59.5 L 224.7 -59.5 Q 225.6 -61.9 225.6 -63.9 L 225.6 -63.9 L 225.6 -63.9 Q 225.6 -67.7 222.5 -67.7 L 222.5 -67.7 L 222.5 -67.7 Q 220.9 -67.7 219.6 -66.3 L 219.6 -66.3 L 219.6 -66.3 Q 218.3 -64.8 218.3 -63 L 218.3 -63 L 218.3 -63 Q 218.3 -61.8 219.3 -60.7 L 219.3 -60.7 L 219.3 -60.7 Q 220.8 -59.3 224.6 -57 L 224.6 -57 L 224.6 -57 Q 228.4 -54.7 229.8 -52.8 L 229.8 -52.8 L 229.8 -52.8 Q 231.2 -50.9 231.2 -48.4 L 231.2 -48.4 L 231.2 -48.4 Q 231.2 -45.8 230 -43.4 L 230 -43.4 L 230 -43.4 Q 228.7 -41 226.5 -39.4 L 226.5 -39.4 L 226.5 -39.4 Q 221.7 -35.8 214 -35.8 L 214 -35.8 L 214 -35.8 Q 209.9 -35.8 206.7 -38 L 206.7 -38 L 206.7 -38 Q 203.5 -40.1 203.5 -42.6 L 203.5 -42.6 L 203.5 -42.6 Q 203.5 -45.1 205.3 -46.5 L 205.3 -46.5 L 205.3 -46.5 Q 207.1 -48 209.8 -48 L 209.8 -48 L 209.8 -48 Q 212.5 -48 214.2 -47 L 214.2 -47 L 214.2 -47 Q 213.3 -44.9 213.3 -43.5 L 213.3 -43.5 L 213.3 -43.5 Q 213.3 -39.2 216.9 -39.2 L 216.9 -39.2 L 216.9 -39.2 Q 218.4 -39.2 219.5 -40.2 L 219.5 -40.2 L 219.5 -40.2 Q 220.5 -41.2 220.5 -42.8 L 220.5 -42.8 L 220.5 -42.8 Q 220.5 -46.1 215 -49.5 L 215 -49.5 L 215 -49.5 Q 210.5 -52.5 209.5 -53.6 L 209.5 -53.6 L 209.5 -53.6 Q 207.8 -55.7 207.8 -58.2 L 207.8 -58.2 L 207.8 -58.2 Q 207.8 -60.8 209 -63.2 L 209 -63.2 L 209 -63.2 Q 210.2 -65.7 212.4 -67.4 L 212.4 -67.4 L 212.4 -67.4 Q 217.1 -71 225.2 -71 L 225.2 -71 L 225.2 -71 Q 229.4 -71 231.9 -69.3 L 231.9 -69.3 L 231.9 -69.3 Q 234.3 -67.6 234.3 -64.8 L 234.3 -64.8 L 234.3 -64.8 Q 234.3 -62 232.6 -60.4 L 232.6 -60.4 L 232.6 -60.4 Q 230.9 -58.8 227.9 -58.8 L 227.9 -58.8 L 227.9 -58.8 Q 225.7 -58.8 224.7 -59.5 Z M 275.8 -57.7 L 288.7 -58.8 L 288.7 -58.8 Q 284.1 -48.7 284.1 -37 L 284.1 -37 L 284.1 -37 Q 282.4 -35.8 279.9 -35.8 L 279.9 -35.8 L 279.9 -35.8 Q 277.3 -35.8 275.7 -37 L 275.7 -37 L 275.7 -37 Q 274.1 -38.1 273.8 -39.4 L 273.8 -39.4 L 273.8 -39.4 Q 272.2 -37.7 269.6 -36.7 L 269.6 -36.7 L 269.6 -36.7 Q 267 -35.8 264.3 -35.8 L 264.3 -35.8 L 264.3 -35.8 Q 261.5 -35.8 259.1 -36.7 L 259.1 -36.7 L 259.1 -36.7 Q 256.7 -37.6 254.9 -39.6 L 254.9 -39.6 L 254.9 -39.6 Q 250.8 -43.9 250.8 -52.2 L 250.8 -52.2 L 250.8 -52.2 Q 250.8 -65 257.6 -72.6 L 257.6 -72.6 L 257.6 -72.6 Q 264.7 -80.6 277.1 -80.6 L 277.1 -80.6 L 277.1 -80.6 Q 285.8 -80.6 288.8 -76.1 L 288.8 -76.1 L 288.8 -76.1 Q 289.8 -74.7 289.8 -73 L 289.8 -73 L 289.8 -73 Q 289.8 -71.3 289.1 -69.9 L 289.1 -69.9 L 289.1 -69.9 Q 288.3 -68.4 287.2 -67.3 L 287.2 -67.3 L 287.2 -67.3 Q 284.4 -64.7 281 -64.7 L 281 -64.7 L 281 -64.7 Q 279.7 -64.7 278.4 -65.2 L 278.4 -65.2 L 278.4 -65.2 Q 278.7 -67.1 278.7 -69.3 L 278.7 -69.3 L 278.7 -69.3 Q 278.7 -71.6 278.5 -72.6 L 278.5 -72.6 L 278.5 -72.6 Q 278.3 -73.6 278 -74.4 L 278 -74.4 L 278 -74.4 Q 277.1 -76.2 275.3 -76.2 L 275.3 -76.2 L 275.3 -76.2 Q 273.5 -76.2 271.5 -74.2 L 271.5 -74.2 L 271.5 -74.2 Q 269.5 -72.3 267.9 -69.1 L 267.9 -69.1 L 267.9 -69.1 Q 264.3 -61.9 264.3 -53.2 L 264.3 -53.2 L 264.3 -53.2 Q 264.3 -49.3 265.9 -46.5 L 265.9 -46.5 L 265.9 -46.5 Q 267.5 -43.4 270.5 -43.4 L 270.5 -43.4 L 270.5 -43.4 Q 271.5 -43.4 272.4 -43.9 L 272.4 -43.9 L 272.4 -43.9 Q 273.4 -44.4 273.7 -44.8 L 273.7 -44.8 L 275.8 -57.7 Z M 294.6 -39 L 294.6 -39 L 294.6 -39 Q 293.1 -40.6 292.5 -43.3 L 292.5 -43.3 L 292.5 -43.3 Q 291.8 -45.9 291.8 -50.2 L 291.8 -50.2 L 291.8 -50.2 Q 291.8 -54.5 293.3 -58.4 L 293.3 -58.4 L 293.3 -58.4 Q 294.7 -62.3 297.4 -65.1 L 297.4 -65.1 L 297.4 -65.1 Q 302.9 -71 312 -71 L 312 -71 L 312 -71 Q 315.3 -71 317.6 -69.9 L 317.6 -69.9 L 328.6 -71 L 323.9 -46 L 323.9 -46 Q 323.7 -45.2 323.7 -43.8 L 323.7 -43.8 L 323.7 -43.8 Q 323.7 -42.4 324.5 -41.5 L 324.5 -41.5 L 324.5 -41.5 Q 325.4 -40.6 326.7 -40.5 L 326.7 -40.5 L 326.7 -40.5 Q 326 -38.3 323.7 -37.1 L 323.7 -37.1 L 323.7 -37.1 Q 321.4 -35.8 318.7 -35.8 L 318.7 -35.8 L 318.7 -35.8 Q 316.1 -35.8 314.3 -36.8 L 314.3 -36.8 L 314.3 -36.8 Q 312.6 -37.8 312.1 -39.4 L 312.1 -39.4 L 312.1 -39.4 Q 311.1 -37.8 308.9 -36.8 L 308.9 -36.8 L 308.9 -36.8 Q 306.7 -35.8 303.8 -35.8 L 303.8 -35.8 L 303.8 -35.8 Q 300.9 -35.8 298.5 -36.5 L 298.5 -36.5 L 298.5 -36.5 Q 296.1 -37.3 294.6 -39 Z M 308.1 -65 L 308.1 -65 L 308.1 -65 Q 307.4 -63.8 306.8 -61.9 L 306.8 -61.9 L 306.8 -61.9 Q 306.1 -59.9 305.1 -54.7 L 305.1 -54.7 L 305.1 -54.7 Q 304 -49.5 304 -45.8 L 304 -45.8 L 304 -45.8 Q 304 -42 304.6 -41 L 304.6 -41 L 304.6 -41 Q 305.2 -39.9 306.2 -39.9 L 306.2 -39.9 L 306.2 -39.9 Q 308.2 -39.9 309.7 -41.8 L 309.7 -41.8 L 309.7 -41.8 Q 311.2 -43.8 311.8 -47.2 L 311.8 -47.2 L 315.2 -66 L 315.2 -66 Q 313.9 -67.1 312.3 -67.1 L 312.3 -67.1 L 312.3 -67.1 Q 310.7 -67.1 309.8 -66.6 L 309.8 -66.6 L 309.8 -66.6 Q 308.9 -66.1 308.1 -65 Z M 347.3 -40.6 L 347.3 -40.6 L 347.3 -40.6 Q 345.4 -35.8 339 -35.8 L 339 -35.8 L 339 -35.8 Q 335.8 -35.8 333.8 -38 L 333.8 -38 L 333.8 -38 Q 332.1 -39.9 332.1 -42 L 332.1 -42 L 332.1 -42 Q 332.1 -46.8 334.3 -57.3 L 334.3 -57.3 L 339 -81.9 L 352 -83.1 L 345.8 -50.8 L 345.8 -50.8 Q 344.7 -46 344.7 -44.4 L 344.7 -44.4 L 344.7 -44.4 Q 344.7 -40.7 347.3 -40.6 Z M 368.1 -40.6 L 368.1 -40.6 L 368.1 -40.6 Q 366.1 -35.8 359.8 -35.8 L 359.8 -35.8 L 359.8 -35.8 Q 356.6 -35.8 354.5 -38 L 354.5 -38 L 354.5 -38 Q 352.8 -39.9 352.8 -42 L 352.8 -42 L 352.8 -42 Q 352.8 -46.8 355.1 -57.3 L 355.1 -57.3 L 359.8 -81.9 L 372.7 -83.1 L 366.5 -50.8 L 366.5 -50.8 Q 365.5 -46 365.5 -44.4 L 365.5 -44.4 L 365.5 -44.4 Q 365.5 -40.7 368.1 -40.6 Z M 399.4 -47.9 L 399.4 -47.9 L 399.4 -47.9 Q 401 -46.8 401 -44.4 L 401 -44.4 L 401 -44.4 Q 401 -42 399.8 -40.4 L 399.8 -40.4 L 399.8 -40.4 Q 398.6 -38.9 396.6 -37.9 L 396.6 -37.9 L 396.6 -37.9 Q 392.5 -35.8 388.1 -35.8 L 388.1 -35.8 L 388.1 -35.8 Q 383.7 -35.8 381.1 -36.7 L 381.1 -36.7 L 381.1 -36.7 Q 378.5 -37.7 376.8 -39.5 L 376.8 -39.5 L 376.8 -39.5 Q 373.4 -42.9 373.4 -49.1 L 373.4 -49.1 L 373.4 -49.1 Q 373.4 -58.8 378.6 -64.6 L 378.6 -64.6 L 378.6 -64.6 Q 384.3 -71 394.1 -71 L 394.1 -71 L 394.1 -71 Q 400.1 -71 403.1 -68.4 L 403.1 -68.4 L 403.1 -68.4 Q 405.4 -66.5 405.4 -63.4 L 405.4 -63.4 L 405.4 -63.4 Q 405.4 -52.1 385.9 -52.1 L 385.9 -52.1 L 385.9 -52.1 Q 385.7 -50.4 385.7 -49 L 385.7 -49 L 385.7 -49 Q 385.7 -46.1 387 -45 L 387 -45 L 387 -45 Q 388.3 -43.8 390.7 -43.8 L 390.7 -43.8 L 390.7 -43.8 Q 393.2 -43.8 395.8 -45 L 395.8 -45 L 395.8 -45 Q 398.3 -46.1 399.4 -47.9 Z M 386.4 -54.8 L 386.4 -54.8 L 386.4 -54.8 Q 390.9 -54.8 393.5 -57.7 L 393.5 -57.7 L 393.5 -57.7 Q 396.2 -60.4 396.2 -64.6 L 396.2 -64.6 L 396.2 -64.6 Q 396.2 -66.1 395.6 -66.9 L 395.6 -66.9 L 395.6 -66.9 Q 395.1 -67.7 394 -67.7 L 394 -67.7 L 394 -67.7 Q 392.9 -67.7 392 -67.3 L 392 -67.3 L 392 -67.3 Q 391.1 -66.9 390.1 -65.5 L 390.1 -65.5 L 390.1 -65.5 Q 387.7 -62.3 386.4 -54.8 Z M 427.6 -55 L 427.6 -55 L 427.6 -55 Q 429.9 -59.1 429.9 -63.3 L 429.9 -63.3 L 429.9 -63.3 Q 429.9 -66 427.9 -66 L 427.9 -66 L 427.9 -66 Q 426.4 -66 424.8 -63.4 L 424.8 -63.4 L 424.8 -63.4 Q 423.1 -60.8 422.6 -57.4 L 422.6 -57.4 L 419.3 -37.1 L 406 -35.8 L 412.6 -69.7 L 423.1 -71 L 422 -64.5 L 422 -64.5 Q 425.1 -71 432.1 -71 L 432.1 -71 L 432.1 -71 Q 435.9 -71 437.9 -69.1 L 437.9 -69.1 L 437.9 -69.1 Q 439.9 -67.1 439.9 -63.2 L 439.9 -63.2 L 439.9 -63.2 Q 439.9 -59.3 437.3 -56.8 L 437.3 -56.8 L 437.3 -56.8 Q 434.7 -54.3 430.3 -54.3 L 430.3 -54.3 L 430.3 -54.3 Q 428.4 -54.3 427.6 -55 Z M 461.3 -44.3 L 461.3 -44.3 L 461.3 -44.3 Q 457.9 -40.8 451.9 -40.8 L 451.9 -40.8 L 451.9 -40.8 Q 444.2 -40.8 442.6 -46.4 L 442.6 -46.4 L 442.6 -46.4 Q 442.1 -48.1 442.1 -49.9 L 442.1 -49.9 L 442.1 -49.9 Q 442.1 -51.8 442.5 -53.7 L 442.5 -53.7 L 445.5 -69.7 L 458.5 -71 L 455 -52.4 L 455 -52.4 Q 454.9 -51.5 454.7 -50.6 L 454.7 -50.6 L 454.7 -50.6 Q 454.5 -49.7 454.5 -48.8 L 454.5 -48.8 L 454.5 -48.8 Q 454.5 -47.9 454.8 -47.3 L 454.8 -47.3 L 454.8 -47.3 Q 455.1 -46.7 455.6 -46.3 L 455.6 -46.3 L 455.6 -46.3 Q 456.3 -45.8 457.7 -45.8 L 457.7 -45.8 L 457.7 -45.8 Q 459.1 -45.8 460.3 -47.4 L 460.3 -47.4 L 460.3 -47.4 Q 461.5 -49.1 462 -52 L 462 -52 L 465.5 -69.7 L 478.2 -71 L 473.4 -45.8 L 473.4 -45.8 Q 471 -33.5 466.1 -28.7 L 466.1 -28.7 L 466.1 -28.7 Q 463.6 -26.2 460.4 -25.2 L 460.4 -25.2 L 460.4 -25.2 Q 457.2 -24.2 453 -24.2 L 453 -24.2 L 453 -24.2 Q 446.3 -24.2 442.4 -26.3 L 442.4 -26.3 L 442.4 -26.3 Q 438.6 -28.4 438.6 -31.9 L 438.6 -31.9 L 438.6 -31.9 Q 438.6 -34.6 440.6 -36.1 L 440.6 -36.1 L 440.6 -36.1 Q 442.6 -37.6 445.6 -37.6 L 445.6 -37.6 L 445.6 -37.6 Q 448.3 -37.6 450.4 -36.4 L 450.4 -36.4 L 450.4 -36.4 Q 451.6 -35.7 452.2 -34.8 L 452.2 -34.8 L 452.2 -34.8 Q 450.7 -33.5 450.7 -31.4 L 450.7 -31.4 L 450.7 -31.4 Q 450.7 -28.6 453.3 -28.6 L 453.3 -28.6 L 453.3 -28.6 Q 457.5 -28.6 459.9 -38.3 L 459.9 -38.3 L 459.9 -38.3 Q 460.6 -41.2 461.3 -44.3 Z" fill="url(#editing-sticker-gradient)" stroke="#000000" stroke-width="2.5"></path></g></g><style>text {
  font-size: 64px;
  font-family: Arial Black;
  dominant-baseline: central;
  text-anchor: middle;
}</style></svg>